# xmcd CD database file
#
# Track frame offsets:
#	150
#	22870
#	42677
#	54350
#	72799
#	87495
#	103728
#	117777
#	129956
#	144193
#	160844
#	174038
#	187571
#	200941
#	223603
#	240325
#	256139
#	267292
#	282739
#
# Disc length: 3969 seconds
#
# Revision: 0
# Processed by: cddbd v1.4PL0 Copyright (c) Steve Scherf et al.
# Submitted via: CDex 1.51
#
DISCID=050f7f13
DTITLE=Wiesbadener Juristenband - 30 Jahre
DYEAR=2001
DGENRE=Jazz
TTITLE0=Maple Leaf Rag
TTITLE1=Exactly Like You
TTITLE2=Flat Foot Floogee
TTITLE3=Everybody Loves My Baby
TTITLE4=Seven Come Eleven
TTITLE5=A Smooth One
TTITLE6=Saint James' Infirmary
TTITLE7=Somebody Loves Me
TTITLE8=Fidgety Feet
TTITLE9=Bei mir bist Du scheen
TTITLE10=Dr. Jazz
TTITLE11=I'll Close My Eyes
TTITLE12=Hello Dolly
TTITLE13=Beale Street Blues
TTITLE14=Saint Thomas
TTITLE15=Taps Miller
TTITLE16=Strangers On The Shore
TTITLE17=What A Wonderful World
TTITLE18=South Rampart Street Parade
EXTD=YEAR: 2001
EXTT0=
EXTT1=
EXTT2=
EXTT3=
EXTT4=
EXTT5=
EXTT6=
EXTT7=
EXTT8=
EXTT9=
EXTT10=
EXTT11=
EXTT12=
EXTT13=
EXTT14=
EXTT15=
EXTT16=
EXTT17=
EXTT18=
PLAYORDER=
